<?xml version="1.0" encoding="UTF-8" standalone="no"?>
<!-- Created with Inkscape (http://www.inkscape.org/) -->

<svg
   version="1.1"
   id="svg2"
   width="1388.4746"
   height="1388.4746"
   viewBox="0 0 1388.4746 1388.4746"
   sodipodi:docname="netcore.svg"
   inkscape:version="1.1.2 (b8e25be833, 2022-02-05)"
   xmlns:inkscape="http://www.inkscape.org/namespaces/inkscape"
   xmlns:sodipodi="http://sodipodi.sourceforge.net/DTD/sodipodi-0.dtd"
   xmlns="http://www.w3.org/2000/svg"
   xmlns:svg="http://www.w3.org/2000/svg">
  <defs
     id="defs6">
    <style
       id="style2">.cls-1{fill:#5c2d91;}.cls-2,.cls-3{fill:#fff;}.cls-2{opacity:0.1;}.cls-4{fill:#f2f2f2;}</style>
    <style
       id="style2-7">.cls-1{fill:#5c2d91;}.cls-2,.cls-3{fill:#fff;}.cls-2{opacity:0.1;}.cls-4{fill:#f2f2f2;}</style>
  </defs>
  <sodipodi:namedview
     id="namedview4"
     pagecolor="#ffffff"
     bordercolor="#666666"
     borderopacity="1.0"
     inkscape:pageshadow="2"
     inkscape:pageopacity="0.0"
     inkscape:pagecheckerboard="0"
     showgrid="false"
     inkscape:snap-page="true"
     inkscape:snap-text-baseline="true"
     inkscape:snap-center="true"
     inkscape:snap-object-midpoints="true"
     inkscape:snap-midpoints="true"
     inkscape:snap-smooth-nodes="true"
     inkscape:object-paths="true"
     inkscape:snap-intersection-paths="true"
     inkscape:snap-bbox="true"
     inkscape:bbox-paths="true"
     inkscape:bbox-nodes="true"
     inkscape:snap-bbox-edge-midpoints="true"
     inkscape:snap-bbox-midpoints="true"
     inkscape:zoom="0.10478206"
     inkscape:cx="171.78513"
     inkscape:cy="1331.3348"
     inkscape:window-width="1281"
     inkscape:window-height="1032"
     inkscape:window-x="-86"
     inkscape:window-y="36"
     inkscape:window-maximized="0"
     inkscape:current-layer="g8"
     inkscape:snap-global="true" />
  <g
     inkscape:groupmode="layer"
     inkscape:label="Image"
     id="g8">
    <circle
       style="fill:#6c429c;stroke:none;stroke-width:6;fill-opacity:1"
       id="path849"
       cx="694.2373"
       cy="694.2373"
       r="694.2373" />
    <g
       id="g2274"
       style="fill:#ffffff"
       transform="translate(-1856.6419,-180.94033)">
      <path
         style="fill:#ffffff;fill-opacity:1;stroke-width:10.1225"
         d="m 2013.0007,974.08234 c -8.8415,-4.5066 -14.2665,-12.93205 -15.1446,-23.52064 -0.9397,-11.33199 1.4906,-17.50324 9.8768,-25.07961 11.8262,-10.68426 26.5626,-10.1708 38.0596,1.32613 13.9754,13.97546 13.0967,32.80006 -2.0713,44.36921 -7.7054,5.87721 -22.2001,7.24782 -30.7205,2.90491 z"
         id="path1874" />
      <path
         style="fill:#ffffff;fill-opacity:1;stroke-width:10.1225"
         d="M 2137.5423,778.59176 V 585.42003 h 29.166 29.166 l 99.3213,155.53072 c 54.6267,85.54188 101.6678,159.54797 104.5358,164.45796 2.868,4.90997 5.5942,8.94235 6.0581,8.96084 0.4639,0.0186 0.6254,-73.98761 0.3587,-164.45796 l -0.4848,-164.49156 h 21.9952 21.9952 v 193.21253 193.21253 l -28.0409,-0.46257 -28.041,-0.46256 -102.7258,-159.42995 c -56.4993,-87.68648 -103.96,-162.65651 -105.4684,-166.60008 -1.5083,-3.94357 -3.2087,-7.17029 -3.7785,-7.17049 -0.5699,-1.9e-4 -0.8151,75.15964 -0.545,167.02185 l 0.4912,167.02221 h -22.0016 -22.0015 z"
         id="path1913" />
      <path
         style="fill:#ffffff;fill-opacity:1;stroke-width:10.1225"
         d="M 2550.8792,778.59176 V 585.42003 h 97.8512 97.8512 v 19.40152 19.40153 h -75.0755 -75.0755 v 65.79649 65.79649 h 70.0142 70.0142 v 19.40152 19.40153 h -70.0142 -70.0142 v 68.32712 68.32712 h 80.1368 80.1367 v 20.24508 20.24507 h -102.9125 -102.9124 z"
         id="path1952" />
      <path
         style="fill:#ffffff;fill-opacity:1;stroke-width:10.1225"
         d="M 2903.4809,797.99329 V 624.22308 h -55.674 -55.6739 v -19.40153 -19.40152 h 134.1236 134.1236 v 19.40152 19.40153 h -55.674 -55.6739 V 797.99329 971.7635 h -22.7757 -22.7757 z"
         id="path1991" />
      <path
         style="fill:#ffffff;fill-opacity:1;stroke-width:3.57886"
         d="m 2364.4316,1246.8578 c -25.9044,-3.2774 -46.4317,-16.1397 -59.1207,-37.0451 -6.059,-9.9821 -10.197,-20.8706 -12.1878,-32.0705 -1.2849,-7.2287 -1.7845,-24.1011 -0.9413,-31.7894 2.5058,-22.8487 11.3747,-41.904 26.5861,-57.1215 10.258,-10.2622 20.747,-16.7231 34.314,-21.1363 10.992,-3.5756 13.4246,-3.8797 31.0334,-3.8797 17.6334,0 23.0298,0.7142 34.937,4.624 l 5.9216,1.9444 0.1635,10.3549 c 0.1297,8.2109 0.01,10.2866 -0.5965,10.0245 -0.4179,-0.1818 -3.3099,-1.4523 -6.4265,-2.8234 -17.4899,-7.6943 -40.111,-9.2415 -56.9659,-3.8961 -23.7969,7.5471 -41.6894,29.1851 -46.5684,56.3169 -1.4767,8.2124 -1.3164,27.3357 0.2947,35.1352 5.5406,26.8237 22.1641,45.3948 46.4516,51.8941 5.2494,1.4048 6.8741,1.5539 17.4206,1.5993 9.0042,0.039 12.9785,-0.2018 17.5961,-1.0652 7.7204,-1.4434 17.0403,-4.4978 23.6627,-7.7549 l 5.2664,-2.5901 -0.01,7.5196 c -0.011,12.0237 0.1884,11.5471 -5.8824,14.0942 -6.0566,2.541 -15.5184,5.2454 -23.0401,6.5853 -5.2164,0.9292 -27.2173,1.6737 -31.9115,1.0798 z"
         id="path2030" />
      <path
         style="fill:#ffffff;fill-opacity:1;stroke-width:3.57886"
         d="m 2504.6035,1246.8846 c -0.8202,-0.1448 -3.1017,-0.5426 -5.0701,-0.884 -14.2021,-2.463 -27.4821,-10.8629 -36.7174,-23.2244 -3.7243,-4.9851 -8.7074,-15.6341 -10.4667,-22.3679 -2.1356,-8.1737 -2.7052,-25.0533 -1.1577,-34.3078 4.1555,-24.8516 18.9019,-42.7109 41.4824,-50.2393 7.172,-2.3912 12.5934,-3.1101 23.2625,-3.0846 8.0589,0.019 10.7936,0.2594 15.095,1.3256 13.7006,3.3958 25.1235,10.7503 31.8507,20.5065 6.0286,8.743 10.0663,18.5805 11.7991,28.7471 1.1716,6.8743 1.185,22.7574 0.025,29.9083 -2.2756,14.0298 -8.6809,26.6592 -18.4606,36.3991 -8.4561,8.4216 -17.874,13.5175 -29.871,16.1626 -4.0216,0.8867 -18.702,1.6006 -21.7714,1.0588 z m 20.5131,-17.5305 c 6.57,-1.6803 12.4815,-4.9834 17.1088,-9.5597 3.1231,-3.0886 4.5439,-5.1521 6.9826,-10.1407 4.4912,-9.187 5.5372,-13.7772 5.9124,-25.9467 0.3673,-11.9128 -0.4977,-18.2869 -3.6039,-26.5566 -4.1856,-11.1433 -10.1185,-18.1988 -18.8908,-22.4654 -7.0103,-3.4097 -10.2425,-4.0764 -19.3733,-3.9966 -6.6261,0.058 -8.4484,0.2943 -12.526,1.625 -14.8807,4.8564 -24.8286,16.8261 -28.6931,34.5248 -1.4792,6.7745 -1.3126,22.4956 0.3115,29.3948 4.0098,17.0339 15.4462,29.42 30.6022,33.1432 6.1602,1.5133 16.2053,1.5033 22.1696,-0.022 z"
         id="path2069" />
      <path
         style="fill:#ffffff;fill-opacity:1;stroke-width:3.57886"
         d="m 2608.3903,1180.4264 v -63.823 h 10.4384 10.4383 v 13.1225 c 0,7.2174 0.2335,13.1225 0.519,13.1225 0.2854,0 0.8561,-1.2043 1.2682,-2.6761 1.2728,-4.5461 5.8619,-11.6601 10.4451,-16.1918 4.4814,-4.4312 9.4602,-7.3324 14.6257,-8.5227 3.5165,-0.8103 12.2763,-0.8092 16.0589,0 l 3.0118,0.6459 v 10.2977 10.2977 l -2.924,-1.4471 c -8.632,-4.2719 -20.6508,-2.6573 -28.579,3.8393 -4.9044,4.0188 -9.8565,13.188 -12.6897,23.4958 -1.3612,4.9525 -1.3804,5.4752 -1.5926,43.3365 l -0.2148,38.3236 h -10.4026 -10.4027 z"
         id="path2108" />
      <path
         style="fill:#ffffff;fill-opacity:1;stroke-width:3.57886"
         d="m 2738.4222,1246.5727 c -10.0216,-0.8364 -20.0957,-4.9264 -28.4969,-11.5696 -10.2105,-8.0738 -18.1624,-22.9291 -20.7223,-38.7122 -1.162,-7.1647 -1.1435,-22.2926 0.036,-29.5671 3.7056,-22.8499 18.2328,-42.099 37.3822,-49.533 7.17,-2.7835 13.7785,-3.7345 23.7176,-3.413 10.0732,0.3259 13.5754,1.1321 21.1875,4.8776 9.7625,4.8036 15.757,10.9525 21.1106,21.6543 5.3701,10.735 7.213,19.7964 7.2185,35.494 v 9.9909 h -45.1239 -45.1239 l 0.3745,5.5175 c 0.4617,6.7999 2.0133,12.3905 5.1924,18.7083 5.6723,11.2724 15.5443,18.1117 28.8249,19.9695 12.9705,1.8145 30.5915,-2.615 42.4353,-10.6672 l 3.5788,-2.4332 0.1651,8.9798 c 0.1912,10.4044 0.853,9.2047 -7.3228,13.2745 -12.8681,6.4056 -27.4633,8.8456 -44.4374,7.4289 z m 26.1483,-77.873 14.412,-0.3937 v -3.6862 c 0,-8.4748 -4.5007,-19.7193 -10.1432,-25.3417 -13.0935,-13.0467 -36.9974,-10.5064 -49.0967,5.2175 -1.4841,1.9286 -3.6436,5.2324 -4.7991,7.3418 -2.1169,3.8647 -5.1522,13.1913 -5.1522,15.8315 v 1.4244 h 20.1836 c 11.101,0 26.669,-0.1771 34.5956,-0.3936 z"
         id="path2147" />
    </g>
  </g>
</svg>
